# Blender 3.3.0
# www.blender.org
mtllib SkyBlockNight.mtl
o Cube
v 50.000000 50.000008 -49.999992
v 50.000000 -49.999992 -50.000008
v 50.000000 49.999992 50.000008
v 50.000000 -50.000008 49.999992
v -50.000000 50.000008 -49.999992
v -50.000000 -49.999992 -50.000008
v -50.000000 49.999992 50.000008
v -50.000000 -50.000008 49.999992
v -50.000000 -49.999992 -50.000008
v -50.000000 -49.999992 -50.000008
v -50.000000 -49.999992 -50.000008
v -50.000000 -50.000008 49.999992
v -50.000000 -50.000008 49.999992
v -50.000000 -50.000008 49.999992
v -50.000000 -50.000008 49.999992
v 50.000000 -49.999992 -50.000008
v 50.000000 -49.999992 -50.000008
v 50.000000 -49.999992 -50.000008
v 50.000000 -49.999992 -50.000008
v 50.000000 50.000008 -49.999992
v 50.000000 50.000008 -49.999992
v 50.000000 50.000008 -49.999992
v -50.000000 49.999992 50.000008
v -50.000000 49.999992 50.000008
v -50.000000 49.999992 50.000008
v 50.000000 49.999992 50.000008
v 50.000000 49.999992 50.000008
v 50.000000 49.999992 50.000008
v 50.000000 49.999992 50.000008
v 50.000000 -50.000008 49.999992
v 50.000000 -50.000008 49.999992
v 50.000000 -50.000008 49.999992
v -50.000000 50.000008 -49.999992
v -50.000000 50.000008 -49.999992
v -50.000000 50.000008 -49.999992
v -50.000000 50.000008 -49.999992
vn -0.0000 1.0000 -0.0000
vn -0.0000 -0.0000 1.0000
vn -1.0000 -0.0000 -0.0000
vn -0.0000 -1.0000 -0.0000
vn 1.0000 -0.0000 -0.0000
vn -0.0000 -0.0000 -1.0000
vt 0.426866 0.767720
vt 0.002855 0.769938
vt 0.001967 0.768420
vt 0.003110 0.630489
vt 0.429458 0.630075
vt 0.003279 0.630988
vt 0.006297 0.765713
vt 0.656060 0.811387
vt 0.428557 0.630666
vt 0.564905 0.607081
vt 0.428557 0.630666
vt 0.003242 0.630432
vt 0.012071 0.826900
vt 0.012071 0.826900
vt 0.656060 0.811387
vt 0.829804 0.588950
vt 0.435082 0.629704
vt 0.829804 0.588950
vt 0.002855 0.769938
vt 0.431098 0.769357
vt 0.071581 0.427403
vt 0.431098 0.769357
vt 0.012931 0.990284
vt 0.437877 0.579014
vt 0.006297 0.765713
vt 0.375913 0.992167
vt 0.070928 0.578843
vt 0.070928 0.578843
vt 0.375913 0.992167
vt 0.376593 0.827760
vt 0.705859 0.791946
vt 0.003110 0.630489
vt 0.425595 0.768055
vt 0.438470 0.426376
vt 0.438470 0.426376
vt 0.429458 0.630075
s 0
usemtl Material.001
f 35/35/1 28/28/1 21/21/1
f 26/26/2 14/14/2 30/30/2
f 7/7/3 9/9/3 12/12/3
f 16/16/4 8/8/4 10/10/4
f 20/20/5 4/4/5 17/17/5
f 5/5/6 2/2/6 6/6/6
f 34/34/1 24/24/1 27/27/1
f 29/29/2 23/23/2 13/13/2
f 25/25/3 33/33/3 11/11/3
f 18/18/4 31/31/4 15/15/4
f 22/22/5 3/3/5 32/32/5
f 36/36/6 1/1/6 19/19/6
