o Cube
v 1.000000 1.000000 -1.000000

v 1.000000 -1.000000 -1.000000
v 1.000000 1.000000 1.000000
v 1.000000 -1.000000 1.000000
v -1.000000 1.000000 -1.000000
v -1.000000 -1.000000 -1.000000
v -1.000000 1.000000 1.000000
v -1.000000 -1.000000 1.000000
v -1.000000 -1.000000 -1.000000
v -1.000000 -1.000000 -1.000000
v -1.000000 -1.000000 -1.000000
v -1.000000 -1.000000 1.000000
v -1.000000 -1.000000 1.000000
v -1.000000 -1.000000 1.000000
v -1.000000 -1.000000 1.000000
v 1.000000 -1.000000 -1.000000
v 1.000000 -1.000000 -1.000000
v 1.000000 -1.000000 -1.000000
v 1.000000 -1.000000 -1.000000
v 1.000000 1.000000 -1.000000
v 1.000000 1.000000 -1.000000
v 1.000000 1.000000 -1.000000
v -1.000000 1.000000 1.000000
v -1.000000 1.000000 1.000000
v -1.000000 1.000000 1.000000
v 1.000000 1.000000 1.000000
v 1.000000 1.000000 1.000000
v 1.000000 1.000000 1.000000
v 1.000000 1.000000 1.000000
v 1.000000 -1.000000 1.000000
v 1.000000 -1.000000 1.000000
v 1.000000 -1.000000 1.000000
v -1.000000 1.000000 -1.000000
v -1.000000 1.000000 -1.000000
v -1.000000 1.000000 -1.000000
v -1.000000 1.000000 -1.000000
vn 0.0000 1.0000 0.0000
vn 0.0000 0.0000 1.0000
vn -1.0000 0.0000 0.0000
vn 0.0000 -1.0000 0.0000
vn 1.0000 0.0000 0.0000
vn 0.0000 0.0000 -1.0000
vt 0.219551 0.999776
vt 0.219883 0.945302
vt 0.220366 0.999893
vt 0.220372 0.945172
vt 0.328491 1.000162
vt 0.329100 0.945219
vt 0.329136 0.999733
vt 0.000082 1.000198
vt 0.219974 0.945444
vt -0.000054 0.945237
vt 0.219631 0.945289
vt 0.328903 0.945278
vt 0.220387 0.945045
vt 0.220502 0.945128
vt 0.000054 1.000193
vt 0.110260 0.945003
vt 0.329073 0.945607
vt 0.110266 0.944984
vt 0.219557 0.945139
vt 0.328776 0.999925
vt 0.000206 0.945261
vt 0.328802 1.000153
vt 0.220622 0.999891
vt 0.109516 1.000144
vt 0.329817 0.999984
vt 0.328320 1.000110
vt 0.000382 0.999950
vt 0.000365 0.999920
vt 0.328599 0.999909
vt 0.329175 0.945386
vt 0.109465 0.999923
vt 0.220269 0.944963
vt 0.219595 0.999907
vt 0.109895 0.945263
vt 0.110600 0.945273
vt 0.328688 1.000183
s 0
usemtl Material
f 35/35/1 28/28/1 21/21/1
f 26/26/2 14/14/2 30/30/2
f 7/7/3 9/9/3 12/12/3
f 16/16/4 8/8/4 10/10/4
f 20/20/5 4/4/5 17/17/5
f 5/5/6 2/2/6 6/6/6
f 34/34/1 24/24/1 27/27/1
f 29/29/2 23/23/2 13/13/2
f 25/25/3 33/33/3 11/11/3
f 18/18/4 31/31/4 15/15/4
f 22/22/5 3/3/5 32/32/5
f 36/36/6 1/1/6 19/19/6
